# xmcd
#
# Track frame offsets: 
#        150
#        24745
#        46946
#        67767
#        92221
#        115161
#        154123
#        179808
#        200855
#        218577
#        242200
#        260941
#        279231
#        290869
#        313491
#
# Disc length: 4464 seconds
#
# Revision: 0
# Processed by: cddbd v1.5.2PL0 Copyright (c) Steve Scherf et al.
# Submitted via: ExactAudioCopy v1.3
#
DISCID=f1116e0f
DTITLE=Neal Black, Nico Wayne Toussaint, Fred Chapellier - BTC Blues R
DTITLE=evue - Live and more... [Disk 1]
DYEAR=2012
DGENRE=Blues
TTITLE0=Daily Bread (Neal Black)
TTITLE1=Ain't No Need (Nico Wayne Toussaint)
TTITLE2=Handfull Of Rain (Neal Black)
TTITLE3=In Fly Away (Neal Black)
TTITLE4=Le Blues (Fred Chapellier)
TTITLE5=Blues For Roy (Fred Chapellier)
TTITLE6=I Was Wrong (Nico Wayne Toussaint)
TTITLE7=Fish Drip Jones (Neal Black)
TTITLE8=How I Got To Memphis (Neal Black)
TTITLE9=When The Lights Come On  (Fred Chapellier)
TTITLE10=Smart Money (Fred Chapellier)
TTITLE11=Wella Wella Baby La (Nico Wayne Toussaint)
TTITLE12=Boogie Instru (Nico Wayne Toussaint)
TTITLE13=Rodney's Song (Fred Chapellier)
TTITLE14=Turning Poing (Nico Wayne Toussaint)
EXTD=
EXTT0=
EXTT1=
EXTT2=
EXTT3=
EXTT4=
EXTT5=
EXTT6=
EXTT7=
EXTT8=
EXTT9=
EXTT10=
EXTT11=
EXTT12=
EXTT13=
EXTT14=
PLAYORDER=
